<svg id="Layer_1" data-name="Layer 1" xmlns="http://www.w3.org/2000/svg" viewBox="0 0 165.4 215.4"><defs><style>.cls-1{fill:#fff;}</style></defs><title>if</title><path class="cls-1" d="M484.24,308.5c0-11.7,0-13.2-8.1-18.6l-2.7-1.8c-1.2-1.2-1.2-4.5.3-5.4,6.9-2.4,24-10.2,30.9-14.7,1.5,0,2.7.6,3,1.8-.6,10.5-1.2,24.9-1.2,37.2v54c0,21.6.6,24.6,11.4,26.1l6.3.9c2.1,1.5,1.5,6.6-.6,7.5-9-.6-17.7-.9-28.2-.9-10.8,0-19.8.3-28.2.9-2.1-.9-2.7-6-.6-7.5l6.3-.9c11.1-1.5,11.4-4.5,11.4-26.1Zm24.9-85.5c0,10.8-7.5,15.6-15.9,15.6-9.3,0-15.3-6.9-15.3-15,0-9.9,7.2-16.2,16.2-16.2S509.14,214.6,509.14,223Z" transform="translate(-465.24 -180.1)"/><path class="cls-1" d="M565.24,289c-5.1,0-5.1.6-5.1,8.7V361c0,21.6.6,25.2,11.4,26.1l10.8.9c2.1,1.5,1.5,6.6-.6,7.5-13.5-.6-22.2-.9-32.7-.9-10.8,0-19.8.3-28.8.9-2.1-.9-2.7-6-.6-7.5l6.9-.9c11.1-1.5,11.4-4.5,11.4-26.1V297.7c0-8.1,0-8.7-6-8.7h-10.5a4.2,4.2,0,0,1-.9-5.7l12.9-6.3c2.4-1.2,4.5-3,4.5-6,0-17.4,2.1-36,9.3-52.8,7.5-17.1,24.3-38.1,54-38.1,15.9,0,29.4,7.2,29.4,18,0,6-5.7,10.8-11.4,10.8-3.3,0-5.1-1.2-7.2-3.6-5.7-6.6-14.1-13.2-24-13.2-9.3,0-16.8,5.7-21.3,16.5-5.4,13.8-6.6,35.7-6.6,50.7V268c0,8.1,0,8.4,5.1,8.4h34.2c3.3,3,1.2,11.4-2.1,12.6Z" transform="translate(-465.24 -180.1)"/></svg>